<svg width="18" height="18" viewBox="0 0 18 18" fill="none" xmlns="http://www.w3.org/2000/svg">
<path d="M8.95238 5.30176C6.73016 5.30176 4.88889 7.11128 4.88889 9.36525C4.88889 11.6192 6.69841 13.4287 8.95238 13.4287C11.2063 13.4287 13.0159 11.5875 13.0159 9.36525C13.0159 7.14303 11.1746 5.30176 8.95238 5.30176ZM8.95238 11.9684C7.52381 11.9684 6.3492 10.7938 6.3492 9.36525C6.3492 7.93668 7.52381 6.76207 8.95238 6.76207C10.3809 6.76207 11.5556 7.93668 11.5556 9.36525C11.5556 10.7938 10.3809 11.9684 8.95238 11.9684Z" fill="black"/>
<path d="M13.1746 6.12716C13.6831 6.12716 14.0952 5.71498 14.0952 5.20652C14.0952 4.69807 13.6831 4.28589 13.1746 4.28589C12.6662 4.28589 12.254 4.69807 12.254 5.20652C12.254 5.71498 12.6662 6.12716 13.1746 6.12716Z" fill="black"/>
<path d="M15.5556 2.82551C14.7302 1.96837 13.5556 1.52393 12.2222 1.52393H5.68255C2.92065 1.52393 1.07938 3.3652 1.07938 6.1271V12.635C1.07938 14.0001 1.52382 15.1747 2.41271 16.0319C3.26985 16.8573 4.41271 17.27 5.7143 17.27H12.1905C13.5556 17.27 14.6984 16.8255 15.5238 16.0319C16.381 15.2065 16.8254 14.0319 16.8254 12.6668V6.1271C16.8254 4.79377 16.381 3.65091 15.5556 2.82551ZM15.3651 12.6668C15.3651 13.6509 15.0794 14.4446 14.5079 14.9842C13.9365 15.5239 13.1429 15.8096 12.1905 15.8096H5.7143C4.76192 15.8096 3.96826 15.5239 3.39684 14.9842C2.82541 14.4128 2.53969 13.6192 2.53969 12.635V6.1271C2.53969 5.17472 2.82541 4.38107 3.39684 3.80964C3.93652 3.26996 4.76192 2.98424 5.7143 2.98424H12.254C13.2064 2.98424 14 3.26996 14.5714 3.84139C15.1111 4.41281 15.4286 5.20647 15.4286 6.1271V12.6668H15.3651Z" fill="black"/>
</svg>
