<svg width="18" height="20" viewBox="0 0 18 20" fill="none" xmlns="http://www.w3.org/2000/svg">
<path d="M17.171 4.93694C16.5958 5.19243 15.9773 5.36483 15.3279 5.44218C15.9906 5.0453 16.4992 4.41649 16.7389 3.66678C16.1188 4.03467 15.4324 4.30178 14.7012 4.4458C14.116 3.82214 13.2819 3.43237 12.3591 3.43237C10.5869 3.43237 9.15012 4.86918 9.15012 6.64134C9.15012 6.8928 9.17847 7.13759 9.2332 7.37245C6.56624 7.23881 4.20157 5.96138 2.6189 4.01978C2.34277 4.49355 2.18449 5.0447 2.18449 5.63303C2.18449 6.74627 2.75098 7.72839 3.612 8.30402C3.08613 8.28713 2.59112 8.14295 2.15859 7.90248C2.1583 7.91581 2.1583 7.92931 2.1583 7.94312C2.1583 9.4976 3.26444 10.7946 4.73255 11.0896C4.46325 11.1628 4.17972 11.2021 3.88702 11.2021C3.68004 11.2021 3.47913 11.1821 3.28317 11.1445C3.6917 12.4193 4.87673 13.3471 6.28068 13.373C5.18245 14.2337 3.79895 14.7467 2.29533 14.7467C2.03644 14.7467 1.78111 14.7314 1.52997 14.7019C2.95033 15.6125 4.63689 16.1437 6.44902 16.1437C12.3516 16.1437 15.579 11.2539 15.579 7.01339C15.579 6.87448 15.5762 6.73573 15.57 6.59822C16.1968 6.14585 16.7411 5.58064 17.171 4.93694Z" fill="black"/>
</svg>
