<svg width="16" height="11" viewBox="0 0 16 11" fill="none" xmlns="http://www.w3.org/2000/svg">
<path d="M8.16838 0.568115C4.71405 0.568115 1.76405 2.71671 0.568848 5.74961C1.76405 8.7825 4.71405 10.9311 8.16838 10.9311C11.6227 10.9311 14.5727 8.7825 15.7679 5.74961C14.5727 2.71671 11.6227 0.568115 8.16838 0.568115ZM8.16838 9.20397C6.26159 9.20397 4.71405 7.65642 4.71405 5.74961C4.71405 3.84282 6.26159 2.29528 8.16838 2.29528C10.0751 2.29528 11.6227 3.84282 11.6227 5.74961C11.6227 7.65642 10.0751 9.20397 8.16838 9.20397ZM8.16838 3.67701C7.02154 3.67701 6.09578 4.60277 6.09578 5.74961C6.09578 6.89646 7.02154 7.82221 8.16838 7.82221C9.31526 7.82221 10.241 6.89646 10.241 5.74961C10.241 4.60277 9.31526 3.67701 8.16838 3.67701Z" fill="black" fill-opacity="0.7"/>
</svg>
