<svg width="12" height="16" viewBox="0 0 12 16" fill="none" xmlns="http://www.w3.org/2000/svg">
<path d="M10.2114 5.72803H9.48217V4.26953C9.48217 2.25681 7.84866 0.623291 5.83593 0.623291C3.82321 0.623291 2.1897 2.25681 2.1897 4.26953V5.72803H1.46045C0.658276 5.72803 0.00195312 6.38435 0.00195312 7.18652V14.479C0.00195312 15.2812 0.658276 15.9375 1.46045 15.9375H10.2114C11.0136 15.9375 11.6699 15.2812 11.6699 14.479V7.18652C11.6699 6.38435 11.0136 5.72803 10.2114 5.72803ZM5.83593 12.2913C5.03376 12.2913 4.37744 11.6349 4.37744 10.8328C4.37744 10.0306 5.03376 9.37426 5.83593 9.37426C6.63811 9.37426 7.29443 10.0306 7.29443 10.8328C7.29443 11.6349 6.63811 12.2913 5.83593 12.2913ZM3.64819 5.72803V4.26953C3.64819 3.05898 4.62538 2.08179 5.83593 2.08179C7.04649 2.08179 8.02368 3.05898 8.02368 4.26953V5.72803H3.64819Z" fill="white"/>
</svg>
