<svg width="333" height="482" viewBox="0 0 333 482" fill="none" xmlns="http://www.w3.org/2000/svg">
<path d="M239 169C238.2 185.4 224.333 206.333 217.5 214.5C203.9 228.1 194.5 233.5 191 234C155.8 244.8 127.333 226.5 117.5 216C117.5 216 108.776 203.381 104.5 194.5C100.224 185.619 95.5 169 95.5 169C95.5 169 79.5 169 79.5 154.5C79.5 140 94 139 94 139C90 102.5 109 61.5 116 61.5C118.473 61.5 121 69 136.5 69C165.5 69 192.5 50 201.5 50C239.9 50 242.5 107 242.5 141C242.5 141 254 140 254 154.5C254 169 239 169 239 169Z" fill="white" stroke="black" stroke-width="2"/>
<path d="M183 101.5C183 101.5 192.5 94 205.5 94C218.5 94 224.5 101.5 224.5 101.5" stroke="black" stroke-width="2" stroke-linecap="square"/>
<path d="M118.5 100C118.5 100 127.5 94 136.5 94C152 94 161 107.5 161 107.5V157H173" stroke="black" stroke-width="2" stroke-linecap="square"/>
<path d="M200.5 129C200.5 126.723 199.777 124 197.5 124C195.223 124 194.5 126.723 194.5 129C194.5 131.277 195.223 134 197.5 134C199.777 134 200.5 131.277 200.5 129Z" fill="black" stroke="black" stroke-width="2" stroke-linecap="square"/>
<path d="M137.5 129C137.5 126.723 136.777 124 134.5 124C132.223 124 131.5 126.723 131.5 129C131.5 131.277 132.223 134 134.5 134C136.777 134 137.5 131.277 137.5 129Z" fill="black" stroke="black" stroke-width="2" stroke-linecap="square"/>
<path d="M134.5 158.5C134.5 151.51 127.231 148.115 119.981 148.003C112.567 147.888 106.5 151.351 106.5 158.5C106.5 165.649 112.567 169.112 119.981 168.997C127.231 168.885 134.5 165.49 134.5 158.5Z" fill="#F9CED9" stroke="#F9CED9" stroke-width="2" stroke-linecap="square"/>
<path d="M196.5 158.5C196.5 151.51 203.769 148.115 211.019 148.003C218.433 147.888 224.5 151.351 224.5 158.5C224.5 165.649 218.433 169.112 211.019 168.997C203.769 168.885 196.5 165.49 196.5 158.5Z" fill="#F9CED9" stroke="#F9CED9" stroke-width="2" stroke-linecap="square"/>
<path d="M1 398V481H78H254H331.5V398C331.5 350.5 289 305.5 219 293C219 293 190.492 303.049 171.5 303.5C150.214 304.006 118 293 118 293C41 307 2 357.5 1 398Z" fill="#868382"/>
<path d="M254 481H331.5V398C331.5 350.5 289 305.5 219 293C219 293 190.492 303.049 171.5 303.5C150.214 304.006 118 293 118 293C41 307 2 357.5 1 398V481H78M254 481V411M254 481H78M78 481V411" stroke="black" stroke-width="2"/>
<path d="M117.5 242V293C117.5 293 150.028 304.195 171.5 303.5C189.917 302.904 217.5 293 217.5 293V214.5C183.5 252 137.333 247.667 117.5 242Z" fill="#FFFEFE" stroke="black" stroke-width="2"/>
<path d="M117.5 215.5V242C132.167 246 169.5 249 194 233.5C146 242 130.167 227.667 117.5 215.5Z" fill="black" stroke="black" stroke-width="2"/>
<path d="M217.5 214.5C232.5 197.5 237.5 186 242.5 140.5C233.5 155.5 223 189 208.5 189C194 189 208.5 165 172.5 167C170.5 167.111 169.5 167 165.5 167H159C132 168 139.5 185 125 185C110.5 185 97 153.833 94 139.5C94 166.5 99.5 194.958 117 214.5C142 242.417 177 237 192 233.5C198 233 211.5 220.5 217.5 214.5Z" fill="#211915" stroke="black" stroke-width="2"/>
<path d="M147 178.5C147 178.5 156.5 188.5 168 188.5C178.5 188.5 187 178.5 187 178.5" stroke="white" stroke-width="2" stroke-linecap="round"/>
<path d="M240.5 159C240.5 155.684 240.951 151 245.786 151C250.621 151 250.137 157.632 247.72 157.632" stroke="black" stroke-linecap="square"/>
<path d="M95.5 160C95.5 156.684 93.9044 151 88.5858 151C83.2672 151 83.7991 157.632 86.4584 157.632" stroke="black" stroke-linecap="square"/>
<path d="M93.9124 137.23C93.9416 137.492 93.9708 137.748 93.9999 138C93.9671 137.75 93.9379 137.494 93.9124 137.23C91.9319 119.53 89.7835 81.0494 109 50.5C109.944 49 108 45.5 107.5 43.5C107.5 43.5 106.5 41 106.5 37.5C106.5 34 108.5 31 108.5 31C110 28.5 112.5 22.5 134.5 22.5C131.667 15.1667 139 0.999996 172 1C195.5 2.5 242.5 31.5 242.5 84.5V118C241.667 95 232.6 49.6 203 50C188 52 166.5 69 136 69C133.504 68.9075 129.148 68.6621 125 67C121.671 65.666 118.654 63.0769 115.5 61.5C110.566 59.0328 91.9965 117.435 93.9124 137.23Z" fill="#211915"/>
<path d="M242.5 140.5V118M242.5 118V84.5C242.5 31.5 195.5 2.5 172 1C139 0.999996 131.667 15.1667 134.5 22.5C112.5 22.5 110 28.5 108.5 31C108.5 31 106.5 34 106.5 37.5C106.5 41 107.5 43.5 107.5 43.5C108 45.5 109.944 49 109 50.5C89.5 81.5 91.9999 120.667 93.9999 138C91.4998 119 110.5 59 115.5 61.5C118.654 63.0769 121.671 65.666 125 67C129.148 68.6621 133.504 68.9075 136 69C166.5 69 188 52 203 50C232.6 49.6 241.667 95 242.5 118Z" stroke="black" stroke-width="2"/>
</svg>
