<svg width="330" height="481" viewBox="0 0 330 481" fill="none" xmlns="http://www.w3.org/2000/svg">
<path d="M116 213.517V240.017C128.5 246.517 189 250.017 217.5 212.517C180 253.517 128.667 225.683 116 213.517Z" fill="#211915" stroke="black" stroke-width="2"/>
<path d="M116 241.007V291.989C116 291.989 148.853 303.181 170.54 302.486C189.141 301.89 217 291.989 217 291.989V213.517C182.66 251.004 136.032 246.672 116 241.007Z" fill="#FFFEFE" stroke="black" stroke-width="2"/>
<path d="M329 479.517H1V385.017C6.5 358.35 37 303.017 115.5 293.017C115.5 293.017 146.5 302.017 169 302.017C191.5 302.017 217.5 293.017 217.5 293.017C302.7 309.817 327.333 361.35 329 385.017V479.517Z" fill="#211915" stroke="black" stroke-width="2"/>
<path d="M78 410.017V478.517" stroke="#908C8A" stroke-width="2"/>
<path d="M78 410.017V478.517" stroke="#908C8A" stroke-width="2"/>
<path d="M252 409.517V478.517" stroke="#908C8A" stroke-width="2"/>
<path d="M252 409.517V478.517" stroke="#908C8A" stroke-width="2"/>
<path d="M169 233.517C227 233.517 234 169.017 234 169.017C234 169.017 254 166.517 254 155.017C254 143.517 240.5 137.517 240.5 137.517C240.5 114.017 242 89.0167 231 68.0167L106 73.0167C92.5 93.0167 91.9999 119.517 91.9999 135.517C91.9999 135.517 77.2821 138.517 77.9999 153.017C78.7919 169.017 96.4999 169.017 96.4999 169.017C96.4999 169.017 101.5 233.517 169 233.517Z" fill="white"/>
<path d="M94 159.517C94 159.517 94.5 149.517 88 149.517C85.8501 149.517 84 149.517 84 153.017C84 156.517 86 157.017 86 157.017M236 159.517C236 159.517 237.5 149.517 243 149.517C248 149.517 248 151.016 248 153.517C248 155.517 247.5 157.017 245.5 157.017M234 169.017C234 169.017 227 233.517 169 233.517C101.5 233.517 96.4999 169.017 96.4999 169.017C96.4999 169.017 78.7919 169.017 77.9999 153.017C77.2821 138.517 91.9999 135.517 91.9999 135.517C91.9999 119.517 92.5 93.0167 106 73.0167L231 68.0167C242 89.0167 240.5 114.017 240.5 137.517C240.5 137.517 254 143.517 254 155.017C254 166.517 234 169.017 234 169.017Z" stroke="black"/>
<path d="M145 177.017C145 177.017 155.5 187.517 166 187.517C176.5 187.517 185 177.017 185 177.017" stroke="black" stroke-width="2"/>
<path d="M174 158.017C169.2 158.017 166 160.683 165 162.017V166.017C165.5 167.017 169 173.017 175 173.017C186 173.017 192 171.517 195.5 168.017C189 168.017 182.5 158.017 174 158.017Z" fill="#211915" stroke="#211915" stroke-width="2"/>
<path d="M156 158.517C160.721 158.517 164.016 160.183 165 161.517V165.517C164.508 166.517 160.902 173.017 155 173.017C144.18 173.017 138.943 171.517 135.5 168.017C141.893 168.017 147.639 158.517 156 158.517Z" fill="#211915" stroke="#211915" stroke-width="2"/>
<path d="M196 157.017C196 150.027 203.269 146.631 210.519 146.519C217.933 146.405 224 149.868 224 157.017C224 164.165 217.933 167.628 210.519 167.514C203.269 167.402 196 164.006 196 157.017Z" fill="#F9CED9" stroke="#F9CED9" stroke-width="2" stroke-linecap="square"/>
<path d="M105 157.017C105 150.027 112.269 146.631 119.519 146.519C126.933 146.405 133 149.868 133 157.017C133 164.165 126.933 167.628 119.519 167.514C112.269 167.402 105 164.006 105 157.017Z" fill="#F9CED9" stroke="#F9CED9" stroke-width="2" stroke-linecap="square"/>
<path d="M180.5 98.0167C180.5 98.0167 190 90.5167 203 90.5167C216 90.5167 222 98.0167 222 98.0167" stroke="black" stroke-width="2" stroke-linecap="square"/>
<path d="M116 96.5167C116 96.5167 125 90.5167 134 90.5167C149.5 90.5167 158.5 104.017 158.5 104.017V153.517H170.5" stroke="black" stroke-width="2" stroke-linecap="square"/>
<path d="M198 125.517C198 123.24 197.277 120.517 195 120.517C192.723 120.517 192 123.24 192 125.517C192 127.794 192.723 130.517 195 130.517C197.277 130.517 198 127.794 198 125.517Z" fill="black" stroke="black" stroke-width="2" stroke-linecap="square"/>
<path d="M135 125.517C135 123.24 134.277 120.517 132 120.517C129.723 120.517 129 123.24 129 125.517C129 127.794 129.723 130.517 132 130.517C134.277 130.517 135 127.794 135 125.517Z" fill="black" stroke="black" stroke-width="2" stroke-linecap="square"/>
<path d="M219.5 26.0167C206.3 5.21669 181.667 0.683358 171 1.01669C158.833 0.850035 131.5 6.51672 119.5 30.5167H99.9999C93 30.5167 79 35.0167 79 49.5167C79 64.0167 102.5 73.0167 104.5 73.0167L243 67.5167C245.5 67.5167 264.5 56.0167 264.5 44.5167C264.5 36.0167 257 26.0167 243 26.0167H219.5Z" fill="#211915" stroke="black" stroke-width="2"/>
</svg>
