<svg width="333" height="485" viewBox="0 0 333 485" fill="none" xmlns="http://www.w3.org/2000/svg">
<path d="M331.5 484H1V397.107C9 327.592 82 300.738 117.5 296V218.5C102.5 197.5 95.5 177.5 95.5 170.5C91 170.5 78.5 170.5 78 157C77.463 142.5 88 141.5 92.5 142.5V123.5C92.5 101.5 109 65.5 124 65.5C144.8 65.5 158.5 81.5 171.5 81.5C191.5 81.5 180.5 65.5 210 65.5C232 65.9 240.833 89.3333 242.5 101V142.5C246.5 141.667 254.5 142.5 254.5 157C254.5 171.5 242.5 170.5 236.5 170.5C236.5 180.5 229 198.5 218 215.5L217 296C305 314.4 330.5 371.071 331.5 397.107V484Z" fill="white"/>
<path d="M217 296C305 314.4 330.5 371.071 331.5 397.107V484H1V397.107C9 327.592 82 300.738 117.5 296M217 296C217 296 188.454 305.668 169.5 306C148.824 306.362 117.5 296 117.5 296M217 296L218 215.5M117.5 296V218.5M117.5 218.5C117.5 218.5 138.5 243.2 170 239C201.5 234.8 218 215.5 218 215.5M117.5 218.5C102.5 197.5 95.5 177.5 95.5 170.5C91 170.5 78.5 170.5 78 157C77.463 142.5 88 141.5 92.5 142.5V123.5C92.5 101.5 109 65.5 124 65.5C144.8 65.5 158.5 81.5 171.5 81.5C191.5 81.5 180.5 65.5 210 65.5C232 65.9 240.833 89.3333 242.5 101V142.5C246.5 141.667 254.5 142.5 254.5 157C254.5 171.5 242.5 170.5 236.5 170.5C236.5 180.5 229 198.5 218 215.5" stroke="black" stroke-width="2"/>
<path d="M117.5 245V217.5C140 237 172.5 243.5 203 227.5C188.5 240 146 254 117.5 245Z" fill="black" stroke="black" stroke-width="2"/>
<path d="M88 70.5C88 88.5 92.1667 104.333 94.5 109C98.8333 95.8333 109 66 123.5 66C145 66 154 81.5 171 81.5C188 81.5 182.5 66 210 66C232 66 240.833 92.3333 242.5 105.5C251.5 47.5 232.5 26 221.5 26C212.5 26 206.5 18.5 205 15.5C202 11 197 1 182.5 1C168 1 161.5 16 152.5 16H128C99.5 16 88 52 88 70.5Z" fill="black" stroke="black" stroke-width="2"/>
<path d="M184.5 107C184.5 107 194.5 96 205 96C218 96 224 107 224 107" stroke="black" stroke-width="2" stroke-linecap="square"/>
<path d="M118 102C118 102 127 96 136 96C151.5 96 160.5 109.5 160.5 109.5V159H172.5" stroke="black" stroke-width="2" stroke-linecap="square"/>
<path d="M200 131.5C200 129.223 199.277 126.5 197 126.5C194.723 126.5 194 129.223 194 131.5C194 133.777 194.723 136.5 197 136.5C199.277 136.5 200 133.777 200 131.5Z" fill="black" stroke="black" stroke-width="2" stroke-linecap="square"/>
<path d="M137 131.5C137 129.223 136.277 126.5 134 126.5C131.723 126.5 131 129.223 131 131.5C131 133.777 131.723 136.5 134 136.5C136.277 136.5 137 133.777 137 131.5Z" fill="black" stroke="black" stroke-width="2" stroke-linecap="square"/>
<path d="M227 162C227 154.345 219.212 150.626 211.444 150.503C203.501 150.378 197 154.171 197 162C197 169.829 203.501 173.622 211.444 173.497C219.212 173.374 227 169.655 227 162Z" fill="#F9CED9" stroke="#F9CED9" stroke-width="2" stroke-linecap="square"/>
<path d="M104 162C104 154.345 111.788 150.626 119.556 150.503C127.499 150.378 134 154.171 134 162C134 169.829 127.499 173.622 119.556 173.497C111.788 173.374 104 169.655 104 162Z" fill="#F9CED9" stroke="#F9CED9" stroke-width="2" stroke-linecap="square"/>
<path d="M147.5 181C147.5 181 155.5 191 167.5 191C178 191 185.5 181 185.5 181" stroke="black" stroke-width="2" stroke-linecap="square"/>
<path d="M237.5 163C237.5 159.5 239.5 153.5 244.5 153.5C249.5 153.5 249 160.5 246.5 160.5" stroke="black" stroke-linecap="square"/>
<path d="M96 162.5C96 159.184 93.9707 153.5 88.8974 153.5C83.8241 153.5 84.3314 160.132 86.8681 160.132" stroke="black" stroke-linecap="square"/>
<path d="M1 397V484H331.5V397C323.5 330.6 251.833 302 217 296C217 296 188.454 305.668 169.5 306C148.824 306.362 117.5 296 117.5 296C28.7 309.6 2.83333 369 1 397Z" fill="black" stroke="black"/>
<path d="M259 411.5V483" stroke="white"/>
<path d="M73.5 412.5V483.5" stroke="white"/>
</svg>
