<svg width="1440" height="500" viewBox="0 0 1440 500" fill="none" xmlns="http://www.w3.org/2000/svg">
<path d="M330.5 496H0V409.107C8 339.592 81 312.738 116.5 308V230.5C101.5 209.5 94.5 189.5 94.5 182.5C90 182.5 77.5 182.5 77 169C76.463 154.5 87 153.5 91.5 154.5V135.5C91.5 113.5 108 77.5 123 77.5C143.8 77.5 157.5 93.5 170.5 93.5C190.5 93.5 179.5 77.5 209 77.5C231 77.9 239.833 101.333 241.5 113V154.5C245.5 153.667 253.5 154.5 253.5 169C253.5 183.5 241.5 182.5 235.5 182.5C235.5 192.5 228 210.5 217 227.5L216 308C304 326.4 329.5 383.071 330.5 409.107V496Z" fill="white"/>
<path d="M216 308C304 326.4 329.5 383.071 330.5 409.107V496H0V409.107C8 339.592 81 312.738 116.5 308M216 308C216 308 187.454 317.668 168.5 318C147.824 318.362 116.5 308 116.5 308M216 308L217 227.5M116.5 308V230.5M116.5 230.5C116.5 230.5 137.5 255.2 169 251C200.5 246.8 217 227.5 217 227.5M116.5 230.5C101.5 209.5 94.5 189.5 94.5 182.5C90 182.5 77.5 182.5 77 169C76.463 154.5 87 153.5 91.5 154.5V135.5C91.5 113.5 108 77.5 123 77.5C143.8 77.5 157.5 93.5 170.5 93.5C190.5 93.5 179.5 77.5 209 77.5C231 77.9 239.833 101.333 241.5 113V154.5C245.5 153.667 253.5 154.5 253.5 169C253.5 183.5 241.5 182.5 235.5 182.5C235.5 192.5 228 210.5 217 227.5" stroke="black" stroke-width="2"/>
<path d="M116.5 257V229.5C139 249 170 255 201 241.5C190.5 256.5 145 266 116.5 257Z" fill="black" stroke="black" stroke-width="2"/>
<path d="M87 82.5C87 100.5 91.1667 116.333 93.5 121C97.8333 107.833 108 78 122.5 78C144 78 153 93.5 170 93.5C187 93.5 181.5 78 209 78C231 78 239.833 104.333 241.5 117.5C250.5 59.5 231.5 38 220.5 38C211.5 38 205.5 30.5 204 27.5C201 23 196 13 181.5 13C167 13 160.5 28 151.5 28H127C98.5 28 87 64 87 82.5Z" fill="black" stroke="black" stroke-width="2"/>
<path d="M183.5 119C183.5 119 193.5 108 204 108C217 108 223 119 223 119" stroke="black" stroke-width="2" stroke-linecap="square"/>
<path d="M117 114C117 114 126 108 135 108C150.5 108 159.5 121.5 159.5 121.5V171H171.5" stroke="black" stroke-width="2" stroke-linecap="square"/>
<path d="M199 143.5C199 141.223 198.277 138.5 196 138.5C193.723 138.5 193 141.223 193 143.5C193 145.777 193.723 148.5 196 148.5C198.277 148.5 199 145.777 199 143.5Z" fill="black" stroke="black" stroke-width="2" stroke-linecap="square"/>
<path d="M136 143.5C136 141.223 135.277 138.5 133 138.5C130.723 138.5 130 141.223 130 143.5C130 145.777 130.723 148.5 133 148.5C135.277 148.5 136 145.777 136 143.5Z" fill="black" stroke="black" stroke-width="2" stroke-linecap="square"/>
<path d="M226 174C226 166.345 218.212 162.626 210.444 162.503C202.501 162.378 196 166.171 196 174C196 181.829 202.501 185.622 210.444 185.497C218.212 185.374 226 181.655 226 174Z" fill="#F9CED9" stroke="#F9CED9" stroke-width="2" stroke-linecap="square"/>
<path d="M103 174C103 166.345 110.788 162.626 118.556 162.503C126.499 162.378 133 166.171 133 174C133 181.829 126.499 185.622 118.556 185.497C110.788 185.374 103 181.655 103 174Z" fill="#F9CED9" stroke="#F9CED9" stroke-width="2" stroke-linecap="square"/>
<path d="M146.5 193C146.5 193 154.5 203 166.5 203C177 203 184.5 193 184.5 193" stroke="black" stroke-width="2" stroke-linecap="square"/>
<path d="M236.5 175C236.5 171.5 238.5 165.5 243.5 165.5C248.5 165.5 248 172.5 245.5 172.5" stroke="black" stroke-linecap="square"/>
<path d="M95 174.5C95 171.184 92.9707 165.5 87.8974 165.5C82.8241 165.5 83.3314 172.132 85.8681 172.132" stroke="black" stroke-linecap="square"/>
<path d="M645 186C644.2 202.4 630.333 223.333 623.5 231.5C609.9 245.1 600.5 250.5 597 251C561.8 261.8 533.333 243.5 523.5 233C523.5 233 514.776 220.381 510.5 211.5C506.224 202.619 501.5 186 501.5 186C501.5 186 485.5 186 485.5 171.5C485.5 157 500 156 500 156C496 119.5 515 78.5 522 78.5C524.473 78.5 527 86 542.5 86C571.5 86 598.5 67 607.5 67C645.9 67 648.5 124 648.5 158C648.5 158 660 157 660 171.5C660 186 645 186 645 186Z" fill="white" stroke="black" stroke-width="2"/>
<path d="M589 118.5C589 118.5 598.5 111 611.5 111C624.5 111 630.5 118.5 630.5 118.5" stroke="black" stroke-width="2" stroke-linecap="square"/>
<path d="M524.5 117C524.5 117 533.5 111 542.5 111C558 111 567 124.5 567 124.5V174H579" stroke="black" stroke-width="2" stroke-linecap="square"/>
<path d="M606.5 146C606.5 143.723 605.777 141 603.5 141C601.223 141 600.5 143.723 600.5 146C600.5 148.277 601.223 151 603.5 151C605.777 151 606.5 148.277 606.5 146Z" fill="black" stroke="black" stroke-width="2" stroke-linecap="square"/>
<path d="M543.5 146C543.5 143.723 542.777 141 540.5 141C538.223 141 537.5 143.723 537.5 146C537.5 148.277 538.223 151 540.5 151C542.777 151 543.5 148.277 543.5 146Z" fill="black" stroke="black" stroke-width="2" stroke-linecap="square"/>
<path d="M540.5 175.5C540.5 168.51 533.231 165.115 525.981 165.003C518.567 164.888 512.5 168.351 512.5 175.5C512.5 182.649 518.567 186.112 525.981 185.997C533.231 185.885 540.5 182.49 540.5 175.5Z" fill="#F9CED9" stroke="#F9CED9" stroke-width="2" stroke-linecap="square"/>
<path d="M602.5 175.5C602.5 168.51 609.769 165.115 617.019 165.003C624.433 164.888 630.5 168.351 630.5 175.5C630.5 182.649 624.433 186.112 617.019 185.997C609.769 185.885 602.5 182.49 602.5 175.5Z" fill="#F9CED9" stroke="#F9CED9" stroke-width="2" stroke-linecap="square"/>
<path d="M407 415V498H484H660H737.5V415C737.5 367.5 695 322.5 625 310C625 310 596.492 320.049 577.5 320.5C556.214 321.006 524 310 524 310C447 324 408 374.5 407 415Z" fill="#868382"/>
<path d="M660 498H737.5V415C737.5 367.5 695 322.5 625 310C625 310 596.492 320.049 577.5 320.5C556.214 321.006 524 310 524 310C447 324 408 374.5 407 415V498H484M660 498V428M660 498H484M484 498V428" stroke="black" stroke-width="2"/>
<path d="M523.5 259V310C523.5 310 556.028 321.195 577.5 320.5C595.917 319.904 623.5 310 623.5 310V231.5C589.5 269 543.333 264.667 523.5 259Z" fill="#FFFEFE" stroke="black" stroke-width="2"/>
<path d="M523.5 232.5V259C538.167 263 575.5 266 600 250.5C552 259 536.167 244.667 523.5 232.5Z" fill="#211915" stroke="black" stroke-width="2"/>
<path d="M623.5 231.5C638.5 214.5 643.5 203 648.5 157.5C639.5 172.5 629 206 614.5 206C600 206 614.5 182 578.5 184C576.5 184.111 575.5 184 571.5 184H565C538 185 545.5 202 531 202C516.5 202 503 170.833 500 156.5C500 183.5 505.5 211.958 523 231.5C548 259.417 583 254 598 250.5C604 250 617.5 237.5 623.5 231.5Z" fill="#1D1D1B" stroke="black" stroke-width="2"/>
<path d="M553 195.5C553 195.5 562.5 205.5 574 205.5C584.5 205.5 593 195.5 593 195.5" stroke="white" stroke-width="2" stroke-linecap="round"/>
<path d="M646.5 176C646.5 172.684 646.951 168 651.786 168C656.621 168 656.137 174.632 653.72 174.632" stroke="black" stroke-linecap="square"/>
<path d="M501.5 177C501.5 173.684 499.904 168 494.586 168C489.267 168 489.799 174.632 492.458 174.632" stroke="black" stroke-linecap="square"/>
<path d="M499.912 154.23C499.942 154.492 499.971 154.748 500 155C499.967 154.75 499.938 154.494 499.912 154.23C497.932 136.53 495.783 98.0494 515 67.5C515.944 66 514 62.5 513.5 60.5C513.5 60.5 512.5 58 512.5 54.5C512.5 51 514.5 48 514.5 48C516 45.5 518.5 39.5 540.5 39.5C537.667 32.1667 545 18 578 18C601.5 19.5 648.5 48.5 648.5 101.5V135C647.667 112 638.6 66.6 609 67C594 69 572.5 86 542 86C539.504 85.9075 535.148 85.6621 531 84C527.671 82.666 524.654 80.0769 521.5 78.5C516.566 76.0328 497.996 134.435 499.912 154.23Z" fill="#211915"/>
<path d="M648.5 157.5V135M648.5 135V101.5C648.5 48.5 601.5 19.5 578 18C545 18 537.667 32.1667 540.5 39.5C518.5 39.5 516 45.5 514.5 48C514.5 48 512.5 51 512.5 54.5C512.5 58 513.5 60.5 513.5 60.5C514 62.5 515.944 66 515 67.5C495.5 98.5 498 137.667 500 155C497.5 136 516.5 76 521.5 78.5C524.654 80.0769 527.671 82.666 531 84C535.148 85.6621 539.504 85.9075 542 86C572.5 86 594 69 609 67C638.6 66.6 647.667 112 648.5 135Z" stroke="black" stroke-width="2"/>
<path d="M928 231.517V258.017C940.5 264.517 1001 268.017 1029.5 230.517C992 271.517 940.667 243.683 928 231.517Z" fill="#211915" stroke="black" stroke-width="2"/>
<path d="M928 259.007V309.989C928 309.989 960.853 321.181 982.54 320.486C1001.14 319.89 1029 309.989 1029 309.989V231.517C994.66 269.004 948.032 264.672 928 259.007Z" fill="#FFFEFE" stroke="black" stroke-width="2"/>
<path d="M1141 497.517H813V403.017C818.5 376.35 849 321.017 927.5 311.017C927.5 311.017 958.5 320.017 981 320.017C1003.5 320.017 1029.5 311.017 1029.5 311.017C1114.7 327.817 1139.33 379.35 1141 403.017V497.517Z" fill="#211915" stroke="black" stroke-width="2"/>
<path d="M890 428.017V496.517" stroke="#908C8A" stroke-width="2"/>
<path d="M890 428.017V496.517" stroke="#908C8A" stroke-width="2"/>
<path d="M1064 427.517V496.517" stroke="#908C8A" stroke-width="2"/>
<path d="M1064 427.517V496.517" stroke="#908C8A" stroke-width="2"/>
<path d="M981 251.517C1039 251.517 1046 187.017 1046 187.017C1046 187.017 1066 184.517 1066 173.017C1066 161.517 1052.5 155.517 1052.5 155.517C1052.5 132.017 1054 107.017 1043 86.0167L918 91.0167C904.5 111.017 904 137.517 904 153.517C904 153.517 889.282 156.517 890 171.017C890.792 187.017 908.5 187.017 908.5 187.017C908.5 187.017 913.5 251.517 981 251.517Z" fill="white"/>
<path d="M906 177.517C906 177.517 906.5 167.517 900 167.517C897.85 167.517 896 167.517 896 171.017C896 174.517 898 175.017 898 175.017M1048 177.517C1048 177.517 1049.5 167.517 1055 167.517C1060 167.517 1060 169.016 1060 171.517C1060 173.517 1059.5 175.017 1057.5 175.017M1046 187.017C1046 187.017 1039 251.517 981 251.517C913.5 251.517 908.5 187.017 908.5 187.017C908.5 187.017 890.792 187.017 890 171.017C889.282 156.517 904 153.517 904 153.517C904 137.517 904.5 111.017 918 91.0167L1043 86.0167C1054 107.017 1052.5 132.017 1052.5 155.517C1052.5 155.517 1066 161.517 1066 173.017C1066 184.517 1046 187.017 1046 187.017Z" stroke="black"/>
<path d="M957 195.017C957 195.017 967.5 205.517 978 205.517C988.5 205.517 997 195.017 997 195.017" stroke="black" stroke-width="2"/>
<path d="M986 176.017C981.2 176.017 978 178.683 977 180.017V184.017C977.5 185.017 981 191.017 987 191.017C998 191.017 1004 189.517 1007.5 186.017C1001 186.017 994.5 176.017 986 176.017Z" fill="#211915" stroke="#211915" stroke-width="2"/>
<path d="M968 176.517C972.721 176.517 976.016 178.183 977 179.517V183.517C976.508 184.517 972.902 191.017 967 191.017C956.18 191.017 950.943 189.517 947.5 186.017C953.893 186.017 959.639 176.517 968 176.517Z" fill="#211915" stroke="#211915" stroke-width="2"/>
<path d="M1008 175.017C1008 168.027 1015.27 164.631 1022.52 164.519C1029.93 164.405 1036 167.868 1036 175.017C1036 182.165 1029.93 185.628 1022.52 185.514C1015.27 185.402 1008 182.006 1008 175.017Z" fill="#F9CED9" stroke="#F9CED9" stroke-width="2" stroke-linecap="square"/>
<path d="M917 175.017C917 168.027 924.269 164.631 931.519 164.519C938.933 164.405 945 167.868 945 175.017C945 182.165 938.933 185.628 931.519 185.514C924.269 185.402 917 182.006 917 175.017Z" fill="#F9CED9" stroke="#F9CED9" stroke-width="2" stroke-linecap="square"/>
<path d="M992.5 116.017C992.5 116.017 1002 108.517 1015 108.517C1028 108.517 1034 116.017 1034 116.017" stroke="black" stroke-width="2" stroke-linecap="square"/>
<path d="M928 114.517C928 114.517 937 108.517 946 108.517C961.5 108.517 970.5 122.017 970.5 122.017V171.517H982.5" stroke="black" stroke-width="2" stroke-linecap="square"/>
<path d="M1010 143.517C1010 141.24 1009.28 138.517 1007 138.517C1004.72 138.517 1004 141.24 1004 143.517C1004 145.794 1004.72 148.517 1007 148.517C1009.28 148.517 1010 145.794 1010 143.517Z" fill="black" stroke="black" stroke-width="2" stroke-linecap="square"/>
<path d="M947 143.517C947 141.24 946.277 138.517 944 138.517C941.723 138.517 941 141.24 941 143.517C941 145.794 941.723 148.517 944 148.517C946.277 148.517 947 145.794 947 143.517Z" fill="black" stroke="black" stroke-width="2" stroke-linecap="square"/>
<path d="M1031.5 44.0167C1018.3 23.2167 993.667 18.6834 983 19.0167C970.833 18.85 943.5 24.5167 931.5 48.5167H912C905 48.5167 891 53.0167 891 67.5167C891 82.0167 914.5 91.0167 916.5 91.0167L1055 85.5167C1057.5 85.5167 1076.5 74.0167 1076.5 62.5167C1076.5 54.0167 1069 44.0167 1055 44.0167H1031.5Z" fill="#211915" stroke="black" stroke-width="2"/>
<path d="M1217 498.015V403.515C1222.17 377.682 1252.5 322.815 1332.5 310.015V259.015C1348.5 264.015 1395 271.515 1434.5 231.515C1380.5 284.015 1303.5 234.015 1309.5 185.515C1299 185.515 1296 180.515 1296 171.015C1296 161.515 1303.5 151.515 1308 152.515C1308.4 131.315 1312.83 111.682 1315 104.515C1361 107.015 1397.5 82.015 1414 68.515C1414 70.015 1418.5 71.415 1418.5 81.015C1418.9 93.815 1431.17 105.182 1439.5 107.515V221.515L1434.5 231.515V310.015H1440V498.015H1294.5H1217Z" fill="white"/>
<path d="M1332.5 310.015C1252.5 322.815 1222.17 377.682 1217 403.515V498.015H1294.5M1332.5 310.015L1386.5 320.015L1434.5 310.015M1332.5 310.015V259.015C1348.5 264.015 1395 271.515 1434.5 231.515M1434.5 310.015H1440V498.015H1294.5M1434.5 310.015V231.515M1294.5 429.515V498.015M1434.5 231.515L1439.5 221.515V107.515C1431.17 105.182 1418.9 93.815 1418.5 81.015C1418.5 71.415 1414 70.015 1414 68.515C1397.5 82.015 1361 107.015 1315 104.515C1312.83 111.682 1308.4 131.315 1308 152.515C1303.5 151.515 1296 161.515 1296 171.015C1296 180.515 1299 185.515 1309.5 185.515C1303.5 234.015 1380.5 284.015 1434.5 231.515Z" stroke="black" stroke-width="2"/>
<path d="M1438.5 291.015H1434.5V232.515C1436.1 232.515 1437.17 225.848 1438.5 222.015V291.015Z" fill="#211915"/>
<path d="M1438.5 222.015V291.015H1434.5V232.515C1436.1 232.515 1437.17 225.848 1438.5 222.015ZM1438.5 222.015L1439 107.515" stroke="black" stroke-width="2"/>
<path d="M1398.5 117.515C1398.5 117.515 1407.5 110.515 1418 110.515C1431 110.515 1437.5 117.515 1437.5 117.515" stroke="black" stroke-width="2" stroke-linecap="square"/>
<path d="M1334 117.015C1334 117.015 1343 111.015 1352 111.015C1367.5 111.015 1376.5 124.515 1376.5 124.515V174.015H1388.5" stroke="black" stroke-width="2" stroke-linecap="square"/>
<path d="M1416 146.515C1416 144.238 1415.28 141.515 1413 141.515C1410.72 141.515 1410 144.238 1410 146.515C1410 148.792 1410.72 151.515 1413 151.515C1415.28 151.515 1416 148.792 1416 146.515Z" fill="black" stroke="black" stroke-width="2" stroke-linecap="square"/>
<path d="M1353 146.515C1353 144.238 1352.28 141.515 1350 141.515C1347.72 141.515 1347 144.238 1347 146.515C1347 148.792 1347.72 151.515 1350 151.515C1352.28 151.515 1353 148.792 1353 146.515Z" fill="black" stroke="black" stroke-width="2" stroke-linecap="square"/>
<path d="M1436 175.515C1436 167.86 1433.21 164.141 1425.44 164.018C1417.5 163.893 1411 167.686 1411 175.515C1411 183.344 1417.5 187.137 1425.44 187.012C1433.21 186.889 1436 183.17 1436 175.515Z" fill="#F9CED9" stroke="#F9CED9" stroke-width="2" stroke-linecap="square"/>
<path d="M1320 177.015C1320 169.36 1327.79 165.641 1335.56 165.518C1343.5 165.393 1350 169.186 1350 177.015C1350 184.844 1343.5 188.637 1335.56 188.512C1327.79 188.389 1320 184.67 1320 177.015Z" fill="#F9CED9" stroke="#F9CED9" stroke-width="2" stroke-linecap="square"/>
<path d="M1363.5 196.015C1363.5 196.015 1371.5 206.015 1383.5 206.015C1394 206.015 1401.5 196.015 1401.5 196.015" stroke="black" stroke-width="2" stroke-linecap="square"/>
<path d="M1384.5 37.0151C1406.5 37.0152 1430.83 50.1818 1439 57.0151V107.515C1418.2 107.115 1410 78.515 1412 69.015C1388 93.015 1339 104.015 1316 105.015C1303.2 141.844 1308.38 169.766 1310.5 182.515C1320.75 244.015 1367.5 261.904 1417 245.515C1393 267.015 1350.83 264.015 1332.5 261.015V292.515H1282.5C1282.5 28.0151 1366 37.0151 1384.5 37.0151Z" fill="#211915" stroke="black" stroke-width="2"/>
<path d="M1362 1.01499C1367.6 0.214994 1366 31.6277 1364.5 47.4341C1362.47 48.1335 1360.46 48.9093 1358.5 49.7521C1358.17 49.8957 1357.83 50.0412 1357.5 50.1887C1354.93 51.3309 1352.42 52.5872 1350 53.9366C1340.83 43.2961 1325.2 20.315 1336 13.515C1346.8 6.71501 1354.83 35.1308 1357.5 50.1887C1357.83 50.0412 1358.17 49.8957 1358.5 49.7521C1357.33 33.8398 1356.4 1.81499 1362 1.01499Z" fill="#FF5266"/>
<path d="M1315.5 91.515C1318.01 79.8169 1331.6 64.1915 1350 53.9366M1438 67.5149C1415.51 41.4372 1387.87 39.3995 1364.5 47.4341M1364.5 47.4341C1366 31.6277 1367.6 0.214994 1362 1.01499C1356.4 1.81499 1357.33 33.8398 1358.5 49.7521M1364.5 47.4341C1362.47 48.1335 1360.46 48.9093 1358.5 49.7521M1358.5 49.7521C1358.17 49.8957 1357.83 50.0412 1357.5 50.1887M1357.5 50.1887C1354.83 35.1308 1346.8 6.71501 1336 13.515C1325.2 20.315 1340.83 43.2961 1350 53.9366M1357.5 50.1887C1354.93 51.3309 1352.42 52.5872 1350 53.9366" stroke="#FF5266" stroke-width="2"/>
</svg>
